/vscmnt/brussel_pixiu_data/_data_brussel/112/vsc11236/PredSimResults/SUBJ04mtu3D/worker10.mot
version=1
nRows=8
nColumns=50
inDegrees=yes
endheader
                time	         pelvis_tilt	         pelvis_list	     pelvis_rotation	           pelvis_tx	           pelvis_ty	           pelvis_tz	       hip_flexion_r	     hip_adduction_r	      hip_rotation_r	        knee_angle_r	       ankle_angle_r	         mtp_angle_r	       hip_flexion_l	     hip_adduction_l	      hip_rotation_l	        knee_angle_l	       ankle_angle_l	         mtp_angle_l	    lumbar_extension	      lumbar_bending	     lumbar_rotation	 ercspn_r/activation	 intobl_r/activation	 extobl_r/activation	    abd_r/activation	    add_r/activation	hamstrings_r/activation	bifemsh_r/activation	glut_max_r/activation	iliopsoas_r/activation	rect_fem_r/activation	  vasti_r/activation	gastroc_r/activation	 soleus_r/activation	tib_ant_r/activation	 ercspn_l/activation	 intobl_l/activation	 extobl_l/activation	    abd_l/activation	    add_l/activation	hamstrings_l/activation	bifemsh_l/activation	glut_max_l/activation	iliopsoas_l/activation	rect_fem_l/activation	  vasti_l/activation	gastroc_l/activation	 soleus_l/activation	tib_ant_l/activation	
          0.65197672	         -2.57945222	         -0.39683473	         -7.92359024	          0.61285812	          0.88033872	          0.01054425	        -12.17004828	         -0.53745445	         -9.05353706	         -8.57287798	         12.72737583	         21.64463447	         29.66592227	         -3.35868410	        -10.74237474	        -11.73464619	          4.03902910	          0.23698171	        -13.82142170	          3.19567738	          7.11557014	          0.03642800	          0.00999999	          0.00999999	          0.05283015	          0.00999999	          0.02570081	          0.18308481	          0.01589756	          0.01000005	          0.00999999	          0.00999999	          0.25111457	          0.23860500	          0.00999999	          0.03230162	          0.21813201	          0.02253772	          0.01074897	          0.30153983	          0.06400814	          0.04030091	          0.03144833	          0.15539478	          0.03021949	          0.02814744	          0.00999999	          0.01295059	          0.33793250	
          0.66501625	         -2.65733150	         -0.38906740	         -7.70648015	          0.62856709	          0.87816706	          0.01016039	        -12.87475575	         -0.66049282	         -9.69973659	         -9.10998416	         12.34882780	         23.07678552	         29.48913027	         -3.26188903	        -10.85253119	        -13.08555289	          3.82097767	          0.22462741	        -13.33510833	          2.58824747	          7.17500697	          0.03195064	          0.00999999	          0.00999999	          0.04339853	          0.00999999	          0.02111253	          0.15039922	          0.01305941	          0.01000004	          0.00999999	          0.00999999	          0.21069481	          0.22874489	          0.00999999	          0.02653491	          0.22047978	          0.01851413	          0.02931559	          0.24770680	          0.06166004	          0.03310611	          0.04191674	          0.12765261	          0.02482450	          0.02312237	          0.01217324	          0.01217325	          0.36514724	
          0.67805579	         -2.72029134	         -0.32918181	         -7.43799264	          0.64455563	          0.87624736	          0.00968488	        -13.48460009	         -0.85304407	        -10.38136088	         -9.87482844	         11.88077336	         24.53285283	         29.25696933	         -3.13767495	        -10.99255235	        -14.32228645	          3.38140751	          0.21656013	        -12.82893044	          1.90388041	          7.20293199	          0.04072016	          0.00999999	          0.00999999	          0.03565072	          0.00999999	          0.01734337	          0.12354888	          0.01072796	          0.01481895	          0.00999999	          0.00999999	          0.17308008	          0.21326805	          0.00999999	          0.02469809	          0.18111817	          0.01520885	          0.04858893	          0.23494392	          0.06398314	          0.02719577	          0.03443347	          0.10486316	          0.02039265	          0.08644772	          0.00999999	          0.00999999	          0.39589652	
          0.69109532	         -2.76914979	         -0.23094156	         -7.12025747	          0.66068442	          0.87475812	          0.00909602	        -13.93759355	         -1.11257408	        -11.09595710	        -10.95565574	         11.27258964	         26.02453331	         28.97808817	         -2.98291319	        -11.23065627	        -15.48829259	          2.95330042	          0.19349776	        -12.32424590	          1.16385621	          7.19761997	          0.05462230	          0.00999999	          0.00999999	          0.02928610	          0.00999999	          0.01424711	          0.10149206	          0.00999999	          0.01217337	          0.00999999	          0.00999999	          0.14218060	          0.18717031	          0.00999999	          0.03029075	          0.14878367	          0.01249366	          0.07255759	          0.21367709	          0.06570749	          0.02234059	          0.02828616	          0.08614225	          0.01675201	          0.15503324	          0.00999999	          0.00999999	          0.41967751	
          0.70413486	         -2.80491922	         -0.09249741	         -6.76648147	          0.67683580	          0.87387546	          0.00839099	        -14.16700278	         -1.45874699	        -11.83495360	        -12.44652811	         10.47956845	         27.55482634	         28.61147379	         -2.78212361	        -11.53310320	        -16.55300233	          2.74200829	          0.16882809	        -11.83478131	          0.37260776	          7.16041587	          0.08032969	          0.00999999	          0.00999999	          0.02405774	          0.00999999	          0.03287254	          0.08337298	          0.00999999	          0.01000009	          0.00999999	          0.01096237	          0.11679752	          0.15375535	          0.00999999	          0.02670477	          0.12222176	          0.01026321	          0.10287582	          0.18866513	          0.06464379	          0.01835219	          0.03165147	          0.07076352	          0.01376132	          0.20308901	          0.00999999	          0.00999999	          0.42229135	
          0.71717439	         -2.82922197	          0.08699695	         -6.39211125	          0.69284422	          0.87376284	          0.00757170	        -14.10139937	         -1.91386306	        -12.58898848	        -14.43923187	          9.45233901	         29.10923852	         28.15779191	         -2.51663226	        -11.81176876	        -17.50111375	          2.76541890	          0.14857843	        -11.37818137	         -0.46465095	          7.09787028	          0.10405344	          0.00999999	          0.00999999	          0.01976278	          0.00999999	          0.06009094	          0.06848865	          0.01410194	          0.00999999	          0.00999999	          0.01803931	          0.09594600	          0.12630585	          0.00999999	          0.02611159	          0.10040186	          0.00999999	          0.12012217	          0.17685771	          0.06600197	          0.01507583	          0.03504379	          0.05813032	          0.01130455	          0.22264005	          0.00999999	          0.00999999	          0.41090520	
          0.73021393	         -2.84281979	          0.29182013	         -6.00757430	          0.70861541	          0.87446007	          0.00665007	        -13.71719384	         -2.47580659	        -13.35181039	        -16.94857747	          8.14208819	         30.63527203	         27.61531023	         -2.18998806	        -12.00559704	        -18.31280117	          2.98968112	          0.14455182	        -10.96444296	         -1.32540135	          7.01448251	          0.09592307	          0.00999999	          0.00999999	          0.01623459	          0.09117928	          0.08519898	          0.05626157	          0.01217325	          0.00999999	          0.00999999	          0.01481880	          0.07881704	          0.10375684	          0.00999999	          0.02406715	          0.08247741	          0.00999999	          0.12861451	          0.18256225	          0.06993960	          0.01238439	          0.02878753	          0.04775248	          0.00999999	          0.23794986	          0.00999999	          0.00999999	          0.37809791	
          0.74325346	         -2.84662501	          0.49324134	         -5.62090902	          0.72407968	          0.87591562	          0.00564701	        -12.98797871	         -3.13122711	        -14.11406489	        -20.00262206	          6.52978124	         32.02072835	         26.95834728	         -1.82131321	        -12.08369717	        -18.92363343	          3.35784126	          0.18772965	        -10.60249628	         -2.17501554	          6.91101140	          0.09948520	          0.03191218	          0.00999999	          0.01333628	          0.09087306	          0.08668471	          0.04621736	          0.00999999	          0.00999999	          0.00999999	          0.01217324	          0.06474606	          0.08523343	          0.00999999	          0.02175484	          0.06775296	          0.00999999	          0.13171795	          0.17217762	          0.07511887	          0.01017344	          0.02585232	          0.03922737	          0.00999999	          0.24175662	          0.00999999	          0.00999999	          0.34348700	
